<svg id="Layer_1" data-name="Layer 1" xmlns="http://www.w3.org/2000/svg" xmlns:xlink="http://www.w3.org/1999/xlink" viewBox="0 0 561.4 234.07"><defs><style>.cls-1{fill:url(#linear-gradient);}.cls-2,.cls-5{fill:#c52226;}.cls-2{stroke:#c52226;}.cls-2,.cls-3,.cls-4,.cls-6{stroke-miterlimit:10;}.cls-2,.cls-3,.cls-6{stroke-width:0.25px;}.cls-3,.cls-4,.cls-7{fill:#273994;}.cls-3,.cls-4{stroke:#273994;}.cls-4{stroke-width:0.2px;}.cls-6{fill:#fff;stroke:#fff;}</style><linearGradient id="linear-gradient" x1="488.88" y1="399.91" x2="685.55" y2="399.91" gradientUnits="userSpaceOnUse"><stop offset="0" stop-color="#2652a3"/><stop offset="0.23" stop-color="#3277bc" stop-opacity="0.76"/><stop offset="0.59" stop-color="#44aadf" stop-opacity="0.42"/><stop offset="0.67" stop-color="#44aadf" stop-opacity="0.41"/><stop offset="0.73" stop-color="#44aadf" stop-opacity="0.36"/><stop offset="0.79" stop-color="#44aadf" stop-opacity="0.29"/><stop offset="0.79" stop-color="#44aadf" stop-opacity="0.28"/><stop offset="0.96" stop-color="#0091b8" stop-opacity="0.16"/><stop offset="1" stop-color="#0091b8" stop-opacity="0.02"/></linearGradient></defs><path class="cls-1" d="M685.55,405.69c0,54.15-40.56,97.34-93.24,97.25-55.74-.1-103.43-48.16-103.43-108.14s47.62-103.43,103.36-97.35C644.92,303.19,685.55,351.53,685.55,405.69Z" transform="translate(-488.88 -282.75)"/><path class="cls-2" d="M690,428.63a39.45,39.45,0,0,1-1.25,13A57.19,57.19,0,0,1,683.8,454a64.07,64.07,0,0,1-8.22,11.55,99.4,99.4,0,0,1-10.28,9.94A109.44,109.44,0,0,1,639,491.69a117.88,117.88,0,0,1-29.48,9.37A105.43,105.43,0,0,1,595,502.78a68.86,68.86,0,0,1-14.28-.8,63.85,63.85,0,0,1-12.45-3.08,40.38,40.38,0,0,1-11.09-6.06,39.3,39.3,0,0,1-13.93-20.79,50.92,50.92,0,0,1-1.6-8.34,78.42,78.42,0,0,1-.46-8.57,76.06,76.06,0,0,1,3.66-23.77A73.85,73.85,0,0,1,554.82,411,85.43,85.43,0,0,1,570,394.36,107,107,0,0,1,589.2,381a143.22,143.22,0,0,1,21.48-9.48c2.75-.92,5.72-1.75,8.92-2.52s6.17-1.44,8.91-2.05a95.93,95.93,0,0,1-9.6-3,29.92,29.92,0,0,1-8.91-5,29.3,29.3,0,0,1-6.86-7.54,23.39,23.39,0,0,1-3.42-9.59,31.73,31.73,0,0,1,3.65-19.66A40,40,0,0,1,616.74,307a54.21,54.21,0,0,1,18.62-8.34,43.84,43.84,0,0,1,19.88-.46,31.2,31.2,0,0,1,18.51,11.65A41.94,41.94,0,0,1,677,315a18.08,18.08,0,0,1,1.82,5.83,17.37,17.37,0,0,1-2,10.29,22.25,22.25,0,0,1-7.77,8.79,33.31,33.31,0,0,1-11,4.68.52.52,0,0,1-.57-.34c-.08-.23,0-.41.35-.57a20.8,20.8,0,0,0,7.88-3.09q2.63-1.94,5.14-7a27.44,27.44,0,0,0,1.83-4.69,10.84,10.84,0,0,0,.23-4.91q-.24-5.48-5-10.51-3.88-4.34-11.65-7.88t-19.2-2.4a48.92,48.92,0,0,0-18.05,5.48,36.67,36.67,0,0,0-13.48,13,38.7,38.7,0,0,0-3.89,9.48,26.22,26.22,0,0,0,3.09,19.88,30.31,30.31,0,0,0,7,7.65,33.61,33.61,0,0,0,8.34,4.34q4.9,1.83,9,3a43.15,43.15,0,0,0,13.6.69q7.65-.69,14.28-.69c.31,0,.49.23.57.69s0,.68-.34.68c-.76,0-2.21,0-4.34-.11s-4.5-.11-7.08-.11-5.23.08-7.89.22-5,.39-7,.69c-1.83.31-3.65.57-5.48.8a28.62,28.62,0,0,0-5.49,1.26,109.05,109.05,0,0,0-39,20A104.35,104.35,0,0,0,566,404.75a64.48,64.48,0,0,0-9.94,16.11,76.24,76.24,0,0,0-5.71,22.85q-.47,5-.46,10.06a41.8,41.8,0,0,0,1.15,9.82,47.81,47.81,0,0,0,4.34,12.11,33.75,33.75,0,0,0,8,10.06A39.06,39.06,0,0,0,574,492.27a60.19,60.19,0,0,0,12,3.54,69.35,69.35,0,0,0,14.17,1.26,99.72,99.72,0,0,0,14.17-1.26,102.91,102.91,0,0,0,15.2-3.43,123.8,123.8,0,0,0,14.51-5.48,91,91,0,0,0,21.25-13.26A72.14,72.14,0,0,0,682,454.22a46.69,46.69,0,0,0,6.85-25.13A30.52,30.52,0,0,0,685,415.15,44.24,44.24,0,0,0,676,403.72a2.17,2.17,0,0,1-1-1.94,1.8,1.8,0,0,1,.91-1.48,2.87,2.87,0,0,1,1.83-.34,3,3,0,0,1,1.94,1.25,64.21,64.21,0,0,1,7.09,13A46.31,46.31,0,0,1,690,428.63Z" transform="translate(-488.88 -282.75)"/><path class="cls-3" d="M754.18,424a.42.42,0,0,1,0,.57c-.15.16-.76.68-1.83,1.6s-2.17,1.91-3.31,3-2.25,2.06-3.31,3-1.68,1.45-1.83,1.6a6.84,6.84,0,0,1-1.83,1.6,22.1,22.1,0,0,1-2.28,1.6,21.48,21.48,0,0,0-2.29,1.59,57.76,57.76,0,0,1-7.08,4.46c-2.44,1.3-4.95,2.55-7.54,3.78a55.81,55.81,0,0,1-7.77,3,35.16,35.16,0,0,1-8,1.37,15.07,15.07,0,0,1-6.86-.68,12.36,12.36,0,0,1-5.71-3.65,14.32,14.32,0,0,1-3.42-5.94,12,12,0,0,1-.35-3.66,21.08,21.08,0,0,1,.57-3.66,34.5,34.5,0,0,1,2.75-7.54,39,39,0,0,1,4.34-6.85,18.31,18.31,0,0,1,2.51-3.21c.91-.91,1.9-1.82,3-2.74a25.87,25.87,0,0,1,5.71-3.88l2.75-1.37q1.59-.69,3-1.14a22.73,22.73,0,0,1,3.19-.69l3.2-.46a34.28,34.28,0,0,1,6.06.57,9.58,9.58,0,0,1,5.14,2.63,8.37,8.37,0,0,1,2.28,4.8,10.32,10.32,0,0,1-1.36,5.6,32.12,32.12,0,0,1-3.78,5.71c-1.45,1.76-2.85,3.31-4.23,4.68a23.92,23.92,0,0,1-2.74,2.52q-.23.22-.57,0c-.23-.15-.19-.3.12-.46.45-.45,1.37-1.41,2.74-2.85a29,29,0,0,0,3.66-4.8,10.82,10.82,0,0,0,1.71-5c.07-1.6-1-2.7-3.09-3.31a19.66,19.66,0,0,0-10.73-.23,10,10,0,0,1-1.26.34c-.38.08-.8.2-1.26.34a8.92,8.92,0,0,1-2.51.92,37.79,37.79,0,0,0-14.4,13.71,24.53,24.53,0,0,0-2.17,5.6,9.65,9.65,0,0,0,.35,6,10.3,10.3,0,0,0,3.42,4.8,15.43,15.43,0,0,0,5,2.29,18.13,18.13,0,0,0,7,0,43.53,43.53,0,0,0,7.42-2.06c2.59-1.07,5.15-2.25,7.66-3.54s5-2.71,7.43-4.23l3.31-2.06c1-.61,2-1.29,3.08-2.05l2.74-2.06a4.78,4.78,0,0,0,1.15-.92,7,7,0,0,0,1.71-1.36q1.49-1.38,3.2-2.86t4.68-4.23C753.8,423.76,754,423.72,754.18,424Z" transform="translate(-488.88 -282.75)"/><path class="cls-4" d="M817.91,288.73A14.9,14.9,0,0,1,822,298.8a30.44,30.44,0,0,1-2.27,11.68,72.6,72.6,0,0,1-6,11.77q-3.65,5.79-6.92,10.54-1.63,2.65-3.45,5.13T799.91,343c-1.46,2.28-2.88,4.59-4.28,6.93s-2.82,4.72-4.27,7.12q-5.08,8.55-9.91,17t-9.55,17q-4.54,8.54-8.82,17.09t-8.45,17.46q-2.73,6.08-5.45,12.35a129.51,129.51,0,0,0-4.73,12.53c-1,3-1.82,6.17-2.55,9.4a30.32,30.32,0,0,0-.72,9.21,17.5,17.5,0,0,0,.72,3.61,5.92,5.92,0,0,0,2,2.85,4.42,4.42,0,0,0,2.18,1.23,2.85,2.85,0,0,0,1.73-.38c.55-.32,1.09-.67,1.64-1.05a4.56,4.56,0,0,1,1.91-.75,2.24,2.24,0,0,1,1.82.37,1.94,1.94,0,0,1,.81,1.24,2.18,2.18,0,0,1-1.91,2.37,27.72,27.72,0,0,1-4.54.38,6.1,6.1,0,0,1-4-1.52A8.84,8.84,0,0,1,740,471a32.06,32.06,0,0,1,.09-8,69.54,69.54,0,0,1,1.73-9.11,89.94,89.94,0,0,1,2.82-8.93A344.23,344.23,0,0,1,759,410.83q8.18-16.89,16.72-33.23,8.73-16.71,18-33,3.09-5.51,6.64-10.73c2.37-3.48,4.57-7.05,6.64-10.72,1.09-2,2.15-4,3.18-6A63.06,63.06,0,0,0,813,311c.6-1.91,1.15-3.84,1.63-5.8a18.85,18.85,0,0,0,.55-5.79,19.93,19.93,0,0,0-1.73-6.84A13,13,0,0,0,810,288a14.59,14.59,0,0,0-4.73-2.57,33,33,0,0,0-5.36-1.23,20.62,20.62,0,0,0-8.1.85,28.61,28.61,0,0,0-7.18,3.42,29.1,29.1,0,0,0-5.82,5.13,22.47,22.47,0,0,0-3.81,6,24.5,24.5,0,0,0-1.73,5,35,35,0,0,0-.64,4.27c-.12,1.4-.18,2.85-.18,4.37s-.06,3.23-.18,5.13c-.13,1.52-.7,2.34-1.73,2.47s-1.43-.57-1.18-2.09c.24-2,.51-4.28.82-6.74a34.41,34.41,0,0,1,1.54-6.93,57.19,57.19,0,0,1,4.82-9.88,23.57,23.57,0,0,1,7-7.59,29.57,29.57,0,0,1,8.09-3.42,37,37,0,0,1,9.82-1.33,33.17,33.17,0,0,1,9.46,1.33A13.7,13.7,0,0,1,817.91,288.73Z" transform="translate(-488.88 -282.75)"/><path class="cls-3" d="M769,414.58a37.62,37.62,0,0,0-5.26,3.2,70.18,70.18,0,0,0-5.94,4.68c-1.91,1.68-2.93,2.6-3.08,2.74-.31.46-.65.5-1,.12s-.19-.72.57-1a15.16,15.16,0,0,0,3.2-2.51,68.85,68.85,0,0,1,6.17-4.92,55.59,55.59,0,0,1,8.11-4.8,19.63,19.63,0,0,1,8.57-2.16c2.13,0,3.08.68,2.85,2.05a14.19,14.19,0,0,1-2.74,5.37q-2.4,3.31-5.82,7.2T768.31,432A52.92,52.92,0,0,0,764,438q-1.49,2.52.11,3.2c2.44,1.07,5.87.91,10.29-.45a89.2,89.2,0,0,0,13.25-5.38,111.19,111.19,0,0,0,11.65-6.62q5-3.31,5.72-4.23c.45-.61.8-.76,1-.46a.64.64,0,0,1-.12.91,59.43,59.43,0,0,1-11.54,7.89,132.44,132.44,0,0,1-14.17,6.62,103.54,103.54,0,0,1-13.71,4.46q-6.51,1.6-9.94,1.14a2.22,2.22,0,0,1-2.17-1.6,6.92,6.92,0,0,1,.23-3.42,22.12,22.12,0,0,1,1.94-4.57c.92-1.68,2-3.43,3.2-5.26q4.11-6.17,10.28-14.17C770.79,414.39,770.44,413.9,769,414.58Zm28-41.7q1.37-3.88.23-4.8c-.77-.61-2.21,0-4.34,1.83a36.41,36.41,0,0,0-6.4,7.54,36,36,0,0,0-4.58,8.45c-.91,2.6-1,4.19-.22,4.8.91.61,2.4,0,4.45-1.94a46.21,46.21,0,0,0,6.29-7.43A36.13,36.13,0,0,0,797,372.88Z" transform="translate(-488.88 -282.75)"/><path class="cls-3" d="M780,487c4.46-9.34,12.49-22.32,17.67-32.09l3.51-6.3c.76-1.11,1.52-2.21,2.32-3.3a197.11,197.11,0,0,1,12.91-15.77,67.76,67.76,0,0,1,12.79-10.39q7.08-4.45,13.49-3.77a13.3,13.3,0,0,1,4.57,1.71,7.1,7.1,0,0,1,3,4,6.06,6.06,0,0,1-.69,5.26,8.74,8.74,0,0,1-5,3.88,19.67,19.67,0,0,1-5,1.26,19.45,19.45,0,0,1-5-.58,14.23,14.23,0,0,1-5-1.37c-1.06-.6-2.59-1.51-4.57-2.74-.3-.14-.53-.11-.68.12a.76.76,0,0,0,0,.8,13.06,13.06,0,0,0,3.08,2.29,28.25,28.25,0,0,0,3.55,1.59,26.52,26.52,0,0,0,8,2.06,27.21,27.21,0,0,0,7.89-.23,15.77,15.77,0,0,0,7.19-3.2c.76-.76,1.49-1.56,2.18-2.4a5.89,5.89,0,0,0,1.25-3.08,6.91,6.91,0,0,0-1.6-5,12.44,12.44,0,0,0-5.48-4.11,28.48,28.48,0,0,0-6.63-1.83,23.45,23.45,0,0,0-8.34,1,31.09,31.09,0,0,0-7.54,3.54,48.42,48.42,0,0,0-6.74,5.26q-3.19,3-5.94,5.93a141.23,141.23,0,0,0-9.48,11.26q3.51-6.12,7.76-12.17a105.62,105.62,0,0,1,10.74-12.8,73.28,73.28,0,0,1,13.83-11q2.28-1.59,1.71-2.52A3.71,3.71,0,0,0,837,401.1a17.52,17.52,0,0,0-4.92,0,13.18,13.18,0,0,0-4.91,1.49A46.29,46.29,0,0,0,815.38,412c-3.28,3.66-4.72,8.86-7.38,13.05s-3.87,7.43-6,12-4.87,8.58-7,13c-5,10.05-7.42,15.84-12,25-4,8-11,20-15,28" transform="translate(-488.88 -282.75)"/><path class="cls-3" d="M890.67,413.09c.31.31.26.54-.11.69s-.65.08-.8-.23a12.74,12.74,0,0,0-2.74-3.43,9.09,9.09,0,0,0-6.63-2.16,9.62,9.62,0,0,0-5.71,2.39q-5.73,5-4.57,13.48a38.45,38.45,0,0,0,2.17,7.66q1.49,3.78,2.85,7.65a92.61,92.61,0,0,1,4.57,15.77,50.23,50.23,0,0,1,1.14,8.11,23.17,23.17,0,0,1-.91,7.88,20.49,20.49,0,0,1-8.68,11.89,23.16,23.16,0,0,1-11,3.88,18.46,18.46,0,0,1-12.34-3.2,18.82,18.82,0,0,1-8.11-11.42,31.63,31.63,0,0,1-.57-13.25,24.16,24.16,0,0,1,5.48-12.35,18.83,18.83,0,0,1,4.91-4.22,13.86,13.86,0,0,1,6.29-2c.91,0,1.37.39,1.37,1.15a1.27,1.27,0,0,1-1.14,1.37,31.06,31.06,0,0,0-6.29,1.6,10.73,10.73,0,0,0-5.14,4.11,28.54,28.54,0,0,0-4.68,20.11,22.23,22.23,0,0,0,2.4,7.08,18.5,18.5,0,0,0,4.22,5.26,18.23,18.23,0,0,0,5.83,3.42,17.76,17.76,0,0,0,13-.34,19.13,19.13,0,0,0,9.14-8.34,17,17,0,0,0,1.82-7.65,31.55,31.55,0,0,0-1.14-8.23,56.86,56.86,0,0,0-3-8.34c-1.22-2.74-2.36-5.4-3.43-8s-2.17-5-3.31-7.31a44.07,44.07,0,0,1-2.86-7.31,28.5,28.5,0,0,1-1.82-7.2,15,15,0,0,1,.68-7,19.06,19.06,0,0,1,2.17-3.2,13.22,13.22,0,0,1,4-3.19,23,23,0,0,1,13.71-2.52,9.77,9.77,0,0,1,5.25,2.29A19.68,19.68,0,0,1,890.67,413.09Z" transform="translate(-488.88 -282.75)"/><path class="cls-5" d="M936.83,424.06c.3-.3.53-.34.68-.11s.08.42-.23.57a15.7,15.7,0,0,1-1.48,1.14c-.84.61-1.71,1.3-2.63,2.06s-1.75,1.45-2.51,2-1.22,1-1.37,1.14L926.54,433c-1.22.77-2.36,1.53-3.42,2.29s-2.22,1.52-3.43,2.28c-2.44,1.53-5,3-7.54,4.34a51.52,51.52,0,0,1-8,3.43,26.62,26.62,0,0,1-7.54,1.38,11.54,11.54,0,0,1-6.85-1.38,7.62,7.62,0,0,1-3-5,14.68,14.68,0,0,1,.12-4c.23-1.45.5-2.78.8-4a39.83,39.83,0,0,1,4.11-9.14,71.93,71.93,0,0,1,5.49-8,35.73,35.73,0,0,1,3.19-2.86,20.68,20.68,0,0,1,3.43-2.17,16.3,16.3,0,0,1,5.26-1.94,14.74,14.74,0,0,1,5.48-.11,8.38,8.38,0,0,1,4.34,2.17,6.91,6.91,0,0,1,2.06,4.68,6.55,6.55,0,0,1-1.14,3.43,15.82,15.82,0,0,1-3,3.77,43.35,43.35,0,0,1-3.66,3.08,32,32,0,0,1-4.68,2.75q-2.4,1.14-4.92,2.28a37.45,37.45,0,0,1-5.48,2.17q-3.19,1-5.49,1.94a.53.53,0,0,1-.57-.33c-.07-.24,0-.43.35-.58q3.42-1.14,8-2.74a57.13,57.13,0,0,0,8-3.43,38.19,38.19,0,0,0,4.46-2.62,29.13,29.13,0,0,0,4-3.32c.46-.61.87-1.18,1.25-1.71a12.83,12.83,0,0,0,1-1.72,3.87,3.87,0,0,0,0-3.2,1.84,1.84,0,0,0-1.6-1.26,9.92,9.92,0,0,0-2.51.12,17.35,17.35,0,0,0-7.31,3,27.76,27.76,0,0,0-7.09,5.94,38.34,38.34,0,0,0-3.31,3.77,45.83,45.83,0,0,0-2.85,4.23,22.41,22.41,0,0,0-3,7.08,7.1,7.1,0,0,0,1.14,6.4,6.22,6.22,0,0,0,4.58,1.83,24.15,24.15,0,0,0,6.62-1.14,58.47,58.47,0,0,0,7.77-3.43c2.59-1.37,5.11-2.82,7.54-4.34,1.22-.76,2.36-1.52,3.43-2.29s2.21-1.52,3.43-2.28l2.74-2.06c.15-.15.65-.53,1.48-1.14l2.63-1.94c.92-.69,1.75-1.34,2.51-1.95S936.67,424.21,936.83,424.06Z" transform="translate(-488.88 -282.75)"/><path class="cls-6" d="M664.53,341.23a24.21,24.21,0,0,1-6.77,2.4c-.31.16-.43.34-.35.57a.52.52,0,0,0,.57.34,33,33,0,0,0,7.11-2.47C664.94,341.84,664.75,341.54,664.53,341.23Z" transform="translate(-488.88 -282.75)"/><path class="cls-6" d="M676,403.72a43.91,43.91,0,0,1,8.08,10c.11-1.47.25-2.95.42-4.43a64.67,64.67,0,0,0-4.84-8.06,3,3,0,0,0-1.94-1.25,2.87,2.87,0,0,0-1.83.34,1.8,1.8,0,0,0-.91,1.48A2.17,2.17,0,0,0,676,403.72Z" transform="translate(-488.88 -282.75)"/><path class="cls-6" d="M643.35,487c-.84.4-.74.45-1.59.82a86,86,0,0,1-12.22,4.59,102.91,102.91,0,0,1-15.2,3.43,99.72,99.72,0,0,1-14.17,1.26A69.35,69.35,0,0,1,586,495.81a60.19,60.19,0,0,1-12-3.54,39.06,39.06,0,0,1-10.62-6.51,33.75,33.75,0,0,1-8-10.06,47.81,47.81,0,0,1-4.34-12.11,41.8,41.8,0,0,1-1.15-9.82q0-5,.46-10.06a76.24,76.24,0,0,1,5.71-22.85A64.48,64.48,0,0,1,566,404.75a104.35,104.35,0,0,1,14.85-14.62,109.05,109.05,0,0,1,39-20,28.62,28.62,0,0,1,5.49-1.26c1.83-.23,3.65-.49,5.48-.8q3-.45,7-.69c2.66-.14,5.29-.22,7.89-.22s4.94,0,7.08.11,3.58.11,4.34.11c.3,0,.42-.22.34-.68s-.26-.69-.57-.69q-6.63,0-14.28.69A43.15,43.15,0,0,1,629,366q-4.11-1.14-9-3a33.61,33.61,0,0,1-8.34-4.34,30.31,30.31,0,0,1-7-7.65,26.22,26.22,0,0,1-3.09-19.88,38.7,38.7,0,0,1,3.89-9.48,36.67,36.67,0,0,1,13.48-13,47.5,47.5,0,0,1,4.63-2.15,37.13,37.13,0,0,0-3.64-1.61c-1,.61-2.16,1.36-3.16,2a40,40,0,0,0-13.37,15.19,31.73,31.73,0,0,0-3.65,19.66,23.39,23.39,0,0,0,3.42,9.59,29.3,29.3,0,0,0,6.86,7.54,29.92,29.92,0,0,0,8.91,5,95.93,95.93,0,0,0,9.6,3c-2.74.61-5.72,1.29-8.91,2.05s-6.17,1.6-8.92,2.52A143.22,143.22,0,0,0,589.2,381,107,107,0,0,0,570,394.36,85.43,85.43,0,0,0,554.82,411a73.85,73.85,0,0,0-9.94,20.33,76.06,76.06,0,0,0-3.66,23.77,78.42,78.42,0,0,0,.46,8.57,50.92,50.92,0,0,0,1.6,8.34,39.3,39.3,0,0,0,13.93,20.79,40.38,40.38,0,0,0,11.09,6.06,64.34,64.34,0,0,0,12.42,3.4,69.16,69.16,0,0,0,14.45.89,107.59,107.59,0,0,0,14.71-2A115,115,0,0,0,625.63,497h0s11.52-5.83,16.13-9.22" transform="translate(-488.88 -282.75)"/><path class="cls-3" d="M814.9,418.53l-.33.23-.6.53c-.62.58-1.2,1.19-1.76,1.82-1,1.58-2.12,3.53-2.38,3.92-1.4,2-2.82,4-4.22,6-.65.94-1.28,1.91-1.91,2.88q-8,14.82-14.83,29.77a191.59,191.59,0,0,1-16.44,28.9A115.48,115.48,0,0,1,763.51,504a36.79,36.79,0,0,1-11.65,8.91,12.52,12.52,0,0,1-7.77,1.37,16,16,0,0,1-5.94-2.4,20.88,20.88,0,0,1-4-3.43c-1-1.14-1.71-1.56-2.17-1.26s-.34.84.34,1.6a17.2,17.2,0,0,0,2.63,2.29q1.83,1.36,4.34,3.2a20.16,20.16,0,0,0,7,2.28,11.38,11.38,0,0,0,6.74-1.14,36.07,36.07,0,0,0,11.31-8.23,127.2,127.2,0,0,0,9-10.74,193.22,193.22,0,0,0,17.48-28.1q7.42-14.62,15.19-29.25,6-11.34,11.4-22.32C816.57,417.38,815.73,418,814.9,418.53Z" transform="translate(-488.88 -282.75)"/><path class="cls-7" d="M925.24,445.76q21.54,2.33,21.54,17.9,0,11.67-9.51,20.13a33,33,0,0,1-22.64,8.45c-5.8,0-10.51-1.14-14.16-3.41S895,483.62,895,480a18.54,18.54,0,0,1,1.06-5.64q1.53,5,7.13,7.93A30,30,0,0,0,917,485.21q11.34,0,18.8-6.43a20.54,20.54,0,0,0,7.46-16.24q0-15.12-25.2-15.12-1.32,0-4.77.33a64.91,64.91,0,0,0,6.37-10.21c1.67.13,2.89.2,3.64.2a35.2,35.2,0,0,0,20.76-6.2q8.8-6.19,8.81-14.56a8.44,8.44,0,0,0-3.24-6.79,12.5,12.5,0,0,0-8.23-2.69,17,17,0,0,0-11.83,4.64,22.42,22.42,0,0,0-6.67,12.34,5.4,5.4,0,0,1-2.91-5.11q0-6.3,8.75-10.54a47.32,47.32,0,0,1,20.69-5,12.86,12.86,0,0,1,8.81,2.91,9.89,9.89,0,0,1,3.32,7.83q0,8.94-9.61,16.64-6.63,5.31-17.31,7.23a13,13,0,0,0-5.4,1.92,15,15,0,0,0-3.62,4.71Z" transform="translate(-488.88 -282.75)"/><path class="cls-7" d="M1021.84,405.91q-26.39,5.58-42.7,21.09a101.54,101.54,0,0,0-18.63,24.07q-7.62,13.59-7.62,22.8,0,6.11,3.44,9.82a11.84,11.84,0,0,0,9.09,3.71q8.16,0,14.42-7.82a28,28,0,0,0,6.27-18,13,13,0,0,0-2.66-8.49,8.62,8.62,0,0,0-7-3.24q-10.41,0-17.43,19a12.17,12.17,0,0,1-.67-3.78q0-7,7.13-12.93a23.55,23.55,0,0,1,15.42-6,12.82,12.82,0,0,1,9.34,3.48,12.14,12.14,0,0,1,3.59,9.12q0,12.4-11.08,22.54A47.56,47.56,0,0,1,971,489.32a26.55,26.55,0,0,1-11.31,3.05,12.93,12.93,0,0,1-10.41-4.74q-4-4.74-4-12.36,0-13.47,10.81-28.68T985.24,419a120.77,120.77,0,0,1,18.2-10.17q9.39-4.21,13.89-4.21A12.07,12.07,0,0,1,1021.84,405.91Z" transform="translate(-488.88 -282.75)"/><path class="cls-7" d="M1036.82,402q13.46,0,13.46,18.56,0,11.28-4.51,25.27a125.26,125.26,0,0,1-12.2,26.65q-11.67,19.23-25.59,19.23a12.91,12.91,0,0,1-11.08-5.5q-4-5.5-4-15.39,0-21.68,12.92-44.22,6.84-11.87,14.86-18.24T1036.82,402Zm-5.37,6.43q-11.81,0-21.91,18.1a79.36,79.36,0,0,0-10.12,39.39q0,17.7,12.4,17.7,12.93,0,21.95-18.5a90.3,90.3,0,0,0,9.55-39.71Q1043.32,408.43,1031.45,408.43Z" transform="translate(-488.88 -282.75)"/></svg>